<svg width="1200" height="750" viewBox="0 0 1200 750" fill="none" xmlns="http://www.w3.org/2000/svg">
<line x1="107.776" y1="494.079" x2="149.776" y2="575.079" stroke="#700000" stroke-width="4"/>
<line x1="191.515" y1="587.94" x2="147.515" y2="576.94" stroke="#700000" stroke-width="4"/>
<line x1="191.462" y1="584.074" x2="234.462" y2="572.074" stroke="#700000" stroke-width="4"/>
<line x1="278" y1="575" x2="235" y2="575" stroke="#700000" stroke-width="4"/>
<line x1="279.324" y1="571.501" x2="322.324" y2="609.501" stroke="#700000" stroke-width="4"/>
<line x1="364.808" y1="593.829" x2="321.808" y2="612.829" stroke="#700000" stroke-width="4"/>
<line x1="363.724" y1="590.019" x2="406.724" y2="584.019" stroke="#700000" stroke-width="4"/>
<line x1="450.946" y1="409.462" x2="408.946" y2="586.462" stroke="#700000" stroke-width="4"/>
<line x1="447.287" y1="407.968" x2="491.287" y2="334.968" stroke="#700000" stroke-width="4"/>
<line x1="534.215" y1="421.903" x2="491.215" y2="336.903" stroke="#700000" stroke-width="4"/>
<line x1="535.025" y1="419.254" x2="578.025" y2="395.254" stroke="#700000" stroke-width="4"/>
<line x1="623.825" y1="301.818" x2="580.825" y2="397.818" stroke="#700000" stroke-width="4"/>
<line x1="623.903" y1="300.385" x2="666.903" y2="433.385" stroke="#700000" stroke-width="4"/>
<line x1="705.698" y1="471.519" x2="663.698" y2="435.519" stroke="#700000" stroke-width="4"/>
<line x1="705.036" y1="469.621" x2="749.036" y2="241.621" stroke="#700000" stroke-width="4"/>
<line x1="792.063" y1="409.499" x2="749.063" y2="242.499" stroke="#700000" stroke-width="4"/>
<line x1="795.635" y1="407.848" x2="838.635" y2="468.848" stroke="#700000" stroke-width="4"/>
<line x1="880.519" y1="422.302" x2="838.518" y2="471.302" stroke="#700000" stroke-width="4"/>
<line x1="877.149" y1="420.242" x2="920.149" y2="315.242" stroke="#700000" stroke-width="4"/>
<line x1="963.459" y1="369.275" x2="920.459" y2="317.275" stroke="#700000" stroke-width="4"/>
<line x1="966.101" y1="366.33" x2="1010.1" y2="395.33" stroke="#700000" stroke-width="4"/>
<line x1="1050.6" y1="440.431" x2="1007.6" y2="398.431" stroke="#700000" stroke-width="4"/>
<line x1="1053.48" y1="437.65" x2="1096.48" y2="484.65" stroke="#700000" stroke-width="4"/>
</svg>
