<svg width="1280" height="174" viewBox="0 0 1280 174" fill="none" xmlns="http://www.w3.org/2000/svg">
<circle cx="106.5" cy="114.5" r="10.5" fill="#BEB5A1"/>
<circle cx="304.5" cy="43.5" r="10.5" fill="#BEB5A1"/>
<circle cx="254.5" cy="10.5" r="10.5" fill="#BEB5A1"/>
<circle cx="421.5" cy="85.5" r="10.5" fill="#BEB5A1"/>
<circle cx="520.5" cy="126.5" r="10.5" fill="#BEB5A1"/>
<circle cx="669.5" cy="60.5" r="10.5" fill="#BEB5A1"/>
<circle cx="814.5" cy="70.5" r="10.5" fill="#BEB5A1"/>
<circle cx="916.5" cy="60.5" r="10.5" fill="#BEB5A1"/>
<circle cx="1013.5" cy="110.5" r="10.5" fill="#BEB5A1"/>
<circle cx="1180.5" cy="95.5" r="10.5" fill="#BEB5A1"/>
<path d="M-2 171C65.3333 140.333 218.8 97.8 246 37C280 -39 422 165 560 109C698 52.9998 836 48.9999 904 70.9999C972 92.9999 1116 137 1182 109C1234.8 86.5999 1276 87.6665 1290 90.9999" stroke="#E1E1E1" stroke-width="5"/>
</svg>
